HIERARCHY
ROOT Pelvis
{
	OFFSET 0.000000 0.000000 0.000000
	CHANNELS 6 Xposition Yposition Zposition Xrotation Yrotation Zrotation
	JOINT LeftUpLeg_virtual
	{
		OFFSET 0.000000 0.000000 0.000000
		CHANNELS 3 Xrotation Yrotation Zrotation
		JOINT LeftUpLeg
		{
			OFFSET 18.735201 -5.666702 -4.541200
			CHANNELS 3 Xrotation Yrotation Zrotation
			JOINT LeftLeg
			{
				OFFSET -0.021200 -31.938179 0.493100
				CHANNELS 3 Xrotation Yrotation Zrotation
				JOINT LeftFoot
				{
					OFFSET 0.021200 -31.938179 -4.336299
					CHANNELS 3 Xrotation Yrotation Zrotation
					JOINT LeftToeBase
					{
						OFFSET 0.943001 -26.722000 15.023500
						CHANNELS 3 Xrotation Yrotation Zrotation
						End Site
						{
							OFFSET 0 0 0
						}
					}
				}
			}
		}
	}
	JOINT RightUpLeg_virtual
	{
		OFFSET 0.000000 0.000000 0.000000
		CHANNELS 3 Xrotation Yrotation Zrotation
		JOINT RightUpLeg
		{
			OFFSET -18.735201 -5.666702 -4.541200
			CHANNELS 3 Xrotation Yrotation Zrotation
			JOINT RightLeg
			{
				OFFSET 0.018946 -31.938133 0.493100
				CHANNELS 3 Xrotation Yrotation Zrotation
				JOINT RightFoot
				{
					OFFSET -0.018946 -31.938126 -4.336299
					CHANNELS 3 Xrotation Yrotation Zrotation
					JOINT RightToeBase
					{
						OFFSET -0.943001 -26.722004 15.023500
						CHANNELS 3 Xrotation Yrotation Zrotation
						End Site
						{
							OFFSET 0 0 0
						}
					}
				}
			}
		}
	}
	JOINT Hips_virtual
	{
		OFFSET 0.000000 0.000000 0.000000
		CHANNELS 3 Xrotation Yrotation Zrotation
		JOINT Hips
		{
			OFFSET -0.000000 -0.000000 -0.000000
			CHANNELS 3 Xrotation Yrotation Zrotation
			JOINT Spine
			{
				OFFSET 0.000000 10.199997 -0.299500
				CHANNELS 3 Xrotation Yrotation Zrotation
				JOINT Spine1
				{
					OFFSET 0.000000 11.900002 -1.516600
					CHANNELS 3 Xrotation Yrotation Zrotation
					JOINT Spine2
					{
						OFFSET 0.000000 13.600006 -2.842500
						CHANNELS 3 Xrotation Yrotation Zrotation
						JOINT Neck_virtual
						{
							OFFSET 0.000000 0.000000 0.000000
							CHANNELS 3 Xrotation Yrotation Zrotation
							JOINT Neck
							{
								OFFSET 0.000000 9.624100 -2.890100
								CHANNELS 3 Xrotation Yrotation Zrotation
								JOINT Head
								{
									OFFSET 0.000000 14.068802 -1.351900
									CHANNELS 3 Xrotation Yrotation Zrotation
									End Site
									{
										OFFSET 0 0 0
									}
								}
							}
						}
						JOINT LeftShoulder_virtual
						{
							OFFSET 0.000000 0.000000 0.000000
							CHANNELS 3 Xrotation Yrotation Zrotation
							JOINT LeftShoulder
							{
								OFFSET 15.263000 10.923401 -0.547700
								CHANNELS 3 Xrotation Yrotation Zrotation
								JOINT LeftArm
								{
									OFFSET 25.438599 -2.830597 -13.032500
									CHANNELS 3 Xrotation Yrotation Zrotation
									JOINT LeftForeArm
									{
										OFFSET 29.960503 0.000000 0.000000
										CHANNELS 3 Xrotation Yrotation Zrotation
										JOINT LeftHand
										{
											OFFSET 27.849251 0.000000 0.000000
											CHANNELS 3 Xrotation Yrotation Zrotation
											End Site
											{
												OFFSET 0 0 0
											}
										}
									}
								}
							}
						}
						JOINT RightShoulder_virtual
						{
							OFFSET 0.000000 0.000000 0.000000
							CHANNELS 3 Xrotation Yrotation Zrotation
							JOINT RightShoulder
							{
								OFFSET -15.263000 10.923401 -0.547700
								CHANNELS 3 Xrotation Yrotation Zrotation
								JOINT RightArm
								{
									OFFSET -25.438599 -2.830597 -13.032500
									CHANNELS 3 Xrotation Yrotation Zrotation
									JOINT RightForeArm
									{
										OFFSET -29.960503 0.000000 0.000000
										CHANNELS 3 Xrotation Yrotation Zrotation
										JOINT RightHand
										{
											OFFSET -27.849251 0.000000 0.000000
											CHANNELS 3 Xrotation Yrotation Zrotation
											End Site
											{
												OFFSET 0 0 0
											}
										}
									}
								}
							}
						}
					}
				}
			}
		}
	}
}
MOTION
Frames: 8
Frame Time: 0.03333333
-8.634708 90.550499 7.468861 0.000000 0.000000 0.000000 5.851199 3.020345 6.318175 -17.610663 7.512639 9.228795 28.617043 -7.218588 -8.994358 -15.454205 -5.175544 -4.997251 0.000000 0.000000 0.000000 5.699795 3.781019 6.557609 -16.194058 -7.852738 -12.623439 34.851447 -11.149491 5.493347 -22.948257 -9.711541 -4.259174 0.000000 0.000000 0.000000 5.627679 3.376131 6.753366 -0.711852 -0.194279 -0.054389 1.801851 -3.719356 -1.726429 7.021526 -0.396813 1.732509 0.000000 0.000000 0.000000 2.155778 -1.053580 2.302629 6.654199 2.035395 1.019049 0.000000 0.000000 0.000000 1.392401 -1.209504 3.313313 -1.048991 -15.238243 -14.893045 11.282235 -12.904519 -90.182027 7.187785 -17.577166 1.108396 0.000000 0.000000 0.000000 4.201813 -0.079311 2.462627 -3.991054 -0.004901 7.477785 9.163714 21.474367 68.565756 9.133180 33.311755 -2.063610 0.000000 0.000000 0.000000 
-8.616091 90.534485 7.562866 0.000000 0.000000 0.000000 5.811024 2.978292 6.266226 -17.522652 7.642665 9.333873 28.606533 -7.269419 -9.038284 -15.652996 -5.272588 -5.221823 0.000000 0.000000 0.000000 5.687168 3.770786 6.470530 -16.029079 -7.955966 -12.478549 34.788479 -11.190123 5.492271 -23.025637 -9.754882 -4.383361 0.000000 0.000000 0.000000 5.591090 3.355499 6.686412 -0.714602 -0.179584 -0.062778 1.826094 -3.679430 -1.693192 6.918400 -0.429320 1.753451 0.000000 0.000000 0.000000 2.285926 -1.081218 2.299005 6.633111 2.018493 1.039713 0.000000 0.000000 0.000000 1.392213 -1.230050 3.267096 -1.091166 -15.105807 -15.018937 11.351879 -12.850849 -90.376127 7.304269 -17.802055 1.140493 0.000000 0.000000 0.000000 3.983978 -0.103354 2.524976 -3.879321 0.018627 7.515253 9.413701 21.503951 68.365317 9.268603 33.334916 -2.122682 0.000000 0.000000 0.000000 
-8.658609 90.495842 7.690660 0.000000 0.000000 0.000000 5.785416 2.964809 6.149912 -17.313379 7.916503 9.561894 28.462549 -7.366614 -9.064210 -16.070412 -5.236157 -5.467017 0.000000 0.000000 0.000000 5.669903 3.772927 6.309730 -15.679078 -8.136297 -12.177502 34.525916 -11.288797 5.496671 -23.183612 -9.841374 -4.593998 0.000000 0.000000 0.000000 5.555234 3.331581 6.537529 -0.716620 -0.172143 -0.072912 1.701780 -3.590491 -1.606766 6.847274 -0.495260 1.814236 0.000000 0.000000 0.000000 2.477641 -1.117310 2.314225 6.650876 2.002777 1.031050 0.000000 0.000000 0.000000 1.407946 -1.267173 3.210943 -1.170174 -14.997827 -15.277299 11.643070 -12.761864 -90.538098 7.430138 -18.443090 1.158467 0.000000 0.000000 0.000000 3.725547 -0.135181 2.617753 -3.788808 0.091072 7.545859 9.726622 21.813700 68.195798 9.482672 33.422465 -2.268900 0.000000 0.000000 0.000000 
-8.752325 90.447685 7.845968 0.000000 0.000000 0.000000 5.785080 2.957145 6.003554 -16.994072 8.304596 9.856418 28.204327 -7.485916 -9.071778 -16.695778 -5.040733 -5.640301 0.000000 0.000000 0.000000 5.661022 3.769716 6.135716 -15.274166 -8.325896 -11.774811 34.156509 -11.445256 5.505720 -23.405617 -9.969815 -4.904489 0.000000 0.000000 0.000000 5.542195 3.307876 6.360052 -0.716672 -0.174472 -0.079340 1.426955 -3.450537 -1.535659 6.808381 -0.585891 1.905252 0.000000 0.000000 0.000000 2.708463 -1.158315 2.346835 6.695837 1.987178 0.999391 0.000000 0.000000 0.000000 1.457449 -1.316524 3.154253 -1.266533 -14.919350 -15.535241 12.091060 -12.637730 -90.595636 7.555757 -19.375785 1.142477 0.000000 0.000000 0.000000 3.479321 -0.169816 2.727218 -3.727292 0.198554 7.583076 10.028122 22.324263 68.092130 9.779343 33.587790 -2.516461 0.000000 0.000000 0.000000 
-8.890944 90.400940 7.997749 0.000000 0.000000 0.000000 5.808360 2.929553 5.862686 -16.581343 8.764045 10.124281 27.822192 -7.592227 -9.067220 -17.481581 -4.683447 -5.672178 0.000000 0.000000 0.000000 5.675979 3.741307 5.997724 -14.910165 -8.451047 -11.335180 33.789233 -11.655756 5.516083 -23.739323 -10.150783 -5.348935 0.000000 0.000000 0.000000 5.565838 3.250340 6.202242 -0.711558 -0.180421 -0.078815 1.058801 -3.258927 -1.546309 6.804307 -0.691469 2.010484 0.000000 0.000000 0.000000 2.952643 -1.207760 2.387070 6.750595 1.970872 0.951294 0.000000 0.000000 0.000000 1.548368 -1.372471 3.106147 -1.362175 -14.887413 -15.637472 12.681079 -12.464362 -90.487671 7.714660 -20.497008 1.079943 0.000000 0.000000 0.000000 3.278956 -0.210450 2.833378 -3.713562 0.287196 7.565555 10.282975 22.900130 68.057398 10.193385 33.853703 -2.901689 0.000000 0.000000 0.000000 
-9.036770 90.363708 8.136724 0.000000 0.000000 0.000000 5.863039 2.833311 5.749114 -16.100651 9.247113 10.291060 27.339285 -7.653271 -9.066092 -18.330513 -4.186923 -5.552669 0.000000 0.000000 0.000000 5.731102 3.659573 5.913823 -14.652803 -8.502071 -10.928972 33.530618 -11.895846 5.541646 -24.194731 -10.361170 -5.877868 0.000000 0.000000 0.000000 5.624340 3.127063 6.098441 -0.706121 -0.183402 -0.072688 0.678502 -3.020321 -1.674650 6.848585 -0.806907 2.120793 0.000000 0.000000 0.000000 3.186265 -1.267969 2.425881 6.795542 1.954717 0.894135 0.000000 0.000000 0.000000 1.684118 -1.436057 3.073476 -1.435714 -14.935694 -15.455449 13.332496 -12.236137 -90.240678 7.926739 -21.736252 0.973499 0.000000 0.000000 0.000000 3.155835 -0.264229 2.923864 -3.750635 0.295934 7.467477 10.428021 23.387044 68.170103 10.788444 34.292368 -3.502967 0.000000 0.000000 0.000000 
-9.168993 90.342766 8.254194 0.000000 0.000000 0.000000 5.930894 2.669417 5.669299 -15.582902 9.744164 10.356200 26.838257 -7.657011 -9.080840 -19.210488 -3.588786 -5.309287 0.000000 0.000000 0.000000 5.815647 3.507712 5.867413 -14.522999 -8.474319 -10.590842 33.416759 -12.116113 5.612093 -24.702175 -10.540603 -6.358879 0.000000 0.000000 0.000000 5.702751 2.963586 6.045424 -0.701242 -0.181939 -0.066466 0.339124 -2.753299 -1.904350 6.938469 -0.936029 2.231832 0.000000 0.000000 0.000000 3.408199 -1.338877 2.460385 6.823709 1.936987 0.833405 0.000000 0.000000 0.000000 1.852974 -1.504820 3.054024 -1.473660 -15.089397 -14.974452 13.977470 -11.914917 -89.972511 8.230048 -23.068740 0.856818 0.000000 0.000000 0.000000 3.132672 -0.329577 2.999445 -3.825405 0.206908 7.259086 10.291125 23.662635 68.638627 11.620996 34.803219 -4.409485 0.000000 0.000000 0.000000 
-9.273127 90.335182 8.339254 0.000000 0.000000 0.000000 5.995368 2.423747 5.617184 -15.100819 10.245787 10.379659 26.394907 -7.610846 -9.127678 -20.087224 -2.931756 -5.012084 0.000000 0.000000 0.000000 5.901235 3.273226 5.823095 -14.538531 -8.372866 -10.316777 33.487721 -12.268849 5.752425 -25.176171 -10.639601 -6.664625 0.000000 0.000000 0.000000 5.779088 2.722859 6.011616 -0.698620 -0.175663 -0.063157 0.093363 -2.497420 -2.175476 7.070841 -1.083423 2.347679 0.000000 0.000000 0.000000 3.631758 -1.419876 2.495780 6.838953 1.916518 0.776758 0.000000 0.000000 0.000000 2.039758 -1.580090 3.041543 -1.465989 -15.354284 -14.234410 14.579686 -11.452479 -89.831181 8.658890 -24.604828 0.800282 0.000000 0.000000 0.000000 3.189986 -0.404828 3.064246 -3.944338 0.063234 6.954348 9.721022 23.575551 69.527897 12.706584 35.197293 -5.656185 0.000000 0.000000 0.000000 
